<?xml version="1.0" standalone="no"?>
<!DOCTYPE svg PUBLIC "-//W3C//DTD SVG 20010904//EN"
 "http://www.w3.org/TR/2001/REC-SVG-20010904/DTD/svg10.dtd">
<svg version="1.0" xmlns="http://www.w3.org/2000/svg"
 width="128.000000pt" height="128.000000pt" viewBox="0 0 128.000000 128.000000"
 preserveAspectRatio="xMidYMid meet">
<metadata>
Created by potrace 1.16, written by Peter Selinger 2001-2019
</metadata>
<g transform="translate(0.000000,128.000000) scale(0.100000,-0.100000)"
fill="#AD88C6" stroke="none">
<path d="M450 945 l0 -75 -75 0 -75 0 0 -35 c0 -34 -1 -35 -40 -35 l-40 0 0
-80 0 -80 -35 0 -35 0 0 -150 0 -150 -40 0 c-39 0 -40 -1 -40 -35 0 -33 -2
-35 -35 -35 -35 0 -35 0 -35 -45 0 -45 0 -45 35 -45 33 0 35 -2 35 -35 l0 -35
570 0 570 0 0 35 c0 33 2 35 35 35 35 0 35 0 35 45 0 45 0 45 -35 45 -33 0
-35 2 -35 35 0 34 -1 35 -40 35 l-40 0 0 150 0 150 -35 0 -35 0 0 80 0 80 -40
0 c-39 0 -40 1 -40 35 l0 35 -75 0 -75 0 0 75 0 75 -40 0 -40 0 0 -75 0 -75
-110 0 -110 0 0 75 0 75 -40 0 -40 0 0 -75z m530 -190 l0 -35 -340 0 -340 0 0
35 0 35 340 0 340 0 0 -35z m72 -215 c3 -56 3 -123 0 -150 l-5 -50 -407 0
-407 0 -5 50 c-3 27 -3 94 0 150 l5 100 407 0 407 0 5 -100z m-152 -315 l0
-35 -410 0 -410 0 0 35 0 35 410 0 410 0 0 -35z"/>
</g>
</svg>
