<?xml version="1.0" standalone="no"?>
<!DOCTYPE svg PUBLIC "-//W3C//DTD SVG 20010904//EN"
 "http://www.w3.org/TR/2001/REC-SVG-20010904/DTD/svg10.dtd">
<svg version="1.0" xmlns="http://www.w3.org/2000/svg"
 width="128.000000pt" height="128.000000pt" viewBox="0 0 128.000000 128.000000"
 preserveAspectRatio="xMidYMid meet">
<metadata>
Created by potrace 1.16, written by Peter Selinger 2001-2019
</metadata>
<g transform="translate(0.000000,128.000000) scale(0.100000,-0.100000)"
fill="#F0C9C5" stroke="none">
<path d="M380 1240 l0 -40 -65 0 -65 0 0 -40 0 -40 -45 0 -45 0 0 -45 0 -45
-40 0 -40 0 0 -65 0 -65 -40 0 -40 0 0 -260 0 -260 40 0 40 0 0 -65 0 -65 40
0 40 0 0 -45 0 -45 45 0 45 0 0 -40 0 -40 65 0 65 0 0 -40 0 -40 260 0 260 0
0 40 0 40 65 0 65 0 0 40 0 40 45 0 45 0 0 45 0 45 40 0 40 0 0 65 0 65 40 0
40 0 0 260 0 260 -40 0 -40 0 0 65 0 65 -40 0 -40 0 0 45 0 45 -45 0 -45 0 0
40 0 40 -65 0 -65 0 0 40 0 40 -260 0 -260 0 0 -40z m510 -165 l0 -45 70 0 70
0 0 -70 0 -70 45 0 45 0 0 -250 0 -250 -45 0 -45 0 0 -70 0 -70 -70 0 -70 0 0
-45 0 -45 -250 0 -250 0 0 45 0 45 -70 0 -70 0 0 70 0 70 -45 0 -45 0 0 250 0
250 45 0 45 0 0 70 0 70 70 0 70 0 0 45 0 45 250 0 250 0 0 -45z"/>
<path d="M617 1084 c-4 -4 -7 -92 -7 -195 l0 -188 -122 -3 -123 -3 -3 -43 -3
-42 168 2 168 3 0 235 0 235 -35 3 c-20 2 -39 0 -43 -4z"/>
</g>
</svg>
