<?xml version="1.0" standalone="no"?>
<!DOCTYPE svg PUBLIC "-//W3C//DTD SVG 20010904//EN"
 "http://www.w3.org/TR/2001/REC-SVG-20010904/DTD/svg10.dtd">
<svg version="1.0" xmlns="http://www.w3.org/2000/svg"
 width="128.000000pt" height="128.000000pt" viewBox="0 0 128.000000 128.000000"
 preserveAspectRatio="xMidYMid meet">
<metadata>
Created by potrace 1.16, written by Peter Selinger 2001-2019
</metadata>
<g transform="translate(0.000000,128.000000) scale(0.100000,-0.100000)"
fill="#000000" stroke="none">
<path d="M380 1240 l0 -40 -65 0 -65 0 0 -40 0 -40 -45 0 -45 0 0 -45 0 -45
-40 0 -40 0 0 -65 0 -65 -40 0 -40 0 0 -260 0 -260 40 0 40 0 0 -65 0 -65 40
0 40 0 0 -45 0 -45 45 0 45 0 0 -40 0 -40 65 0 65 0 0 -40 0 -40 260 0 260 0
0 40 0 40 65 0 65 0 0 40 0 40 45 0 45 0 0 45 0 45 40 0 40 0 0 65 0 65 40 0
40 0 0 260 0 260 -40 0 -40 0 0 65 0 65 -40 0 -40 0 0 45 0 45 -45 0 -45 0 0
40 0 40 -65 0 -65 0 0 40 0 40 -260 0 -260 0 0 -40z m510 -90 l0 -40 64 0 65
0 3 -42 c3 -43 3 -43 46 -46 l42 -3 0 -65 0 -64 40 0 40 0 0 -250 0 -250 -40
0 -40 0 0 -64 0 -65 -42 -3 c-43 -3 -43 -3 -46 -45 l-3 -43 -65 0 -64 0 0 -40
0 -40 -250 0 -250 0 0 40 0 40 -64 0 -65 0 -3 42 c-3 43 -3 43 -45 46 l-43 3
0 65 0 64 -40 0 -40 0 0 250 0 250 40 0 40 0 0 64 0 65 43 3 c42 3 42 3 45 46
l3 42 65 0 64 0 0 40 0 40 250 0 250 0 0 -40z"/>
<path d="M610 910 l0 -210 -125 0 -125 0 0 -45 0 -45 170 0 170 0 0 255 0 255
-45 0 -45 0 0 -210z"/>
</g>
</svg>
