<?xml version="1.0" standalone="no"?>
<!DOCTYPE svg PUBLIC "-//W3C//DTD SVG 20010904//EN"
 "http://www.w3.org/TR/2001/REC-SVG-20010904/DTD/svg10.dtd">
<svg version="1.0" xmlns="http://www.w3.org/2000/svg"
 width="128.000000pt" height="128.000000pt" viewBox="0 0 128.000000 128.000000"
 preserveAspectRatio="xMidYMid meet">
<metadata>
Created by potrace 1.16, written by Peter Selinger 2001-2019
</metadata>
<g transform="translate(0.000000,128.000000) scale(0.100000,-0.100000)"
fill="#000000" stroke="none">
<path d="M300 1182 c0 -50 -14 -62 -72 -62 l-48 0 0 -48 c0 -26 -5 -53 -12
-60 -7 -7 -34 -12 -60 -12 l-48 0 0 -210 0 -210 78 0 c47 0 83 -5 90 -12 8 -8
12 -45 12 -100 l0 -88 78 0 c47 0 83 -5 90 -12 7 -7 12 -38 12 -70 l0 -58 68
0 c40 0 73 -5 80 -12 7 -7 12 -43 12 -90 l0 -78 60 0 60 0 0 78 c0 47 5 83 12
90 7 7 40 12 80 12 l68 0 0 58 c0 32 5 63 12 70 7 7 43 12 90 12 l78 0 0 88
c0 55 4 92 12 100 7 7 43 12 90 12 l78 0 0 210 0 210 -48 0 c-26 0 -53 5 -60
12 -7 7 -12 34 -12 60 l0 48 -48 0 c-58 0 -72 12 -72 62 l0 38 -60 0 -60 0 0
-38 c0 -50 -14 -62 -72 -62 -46 0 -48 -1 -48 -28 0 -43 -16 -52 -100 -52 -84
0 -100 9 -100 52 0 27 -2 28 -48 28 -58 0 -72 12 -72 62 l0 38 -60 0 -60 0 0
-38z"/>
</g>
</svg>
