<svg version="1.0" xmlns="http://www.w3.org/2000/svg"
 width="128.000000pt" height="128.000000pt" viewBox="0 0 128.000000 128.000000"
 preserveAspectRatio="xMidYMid meet">
<g transform="translate(0.000000,128.000000) scale(0.100000,-0.100000)"
fill="#f6b600" stroke="none">
<path d="M580 1240 l0 -40 -40 0 -40 0 0 -69 0 -70 -42 -3 -43 -3 -3 -52 -3
-53 -40 0 c-39 0 -39 0 -39 -40 l0 -40 -165 0 -165 0 0 -115 0 -115 40 0 40 0
0 -45 0 -45 40 0 40 0 0 -275 0 -275 115 0 115 0 0 40 0 40 70 0 70 0 0 40 0
40 110 0 110 0 0 -40 0 -40 70 0 70 0 0 -40 0 -40 115 0 115 0 0 275 0 275 40
0 40 0 0 45 0 45 40 0 40 0 0 115 0 115 -165 0 -165 0 0 40 c0 40 0 40 -39 40
l-40 0 -3 53 -3 52 -42 3 -43 3 0 70 0 69 -40 0 -40 0 0 40 0 40 -60 0 -60 0
0 -40z m116 -110 l-6 -70 45 0 45 0 0 -55 0 -55 40 0 40 0 0 -45 0 -45 45 0
45 0 0 -40 0 -40 125 0 125 0 0 -32 c0 -18 -3 -50 -6 -70 -6 -36 -8 -38 -45
-38 -39 0 -39 0 -39 -40 l0 -40 -40 0 -40 0 0 -235 0 -235 -70 0 -70 0 0 40 0
40 -70 0 -70 0 0 40 0 40 -110 0 -110 0 0 -40 0 -40 -70 0 -70 0 0 -40 0 -40
-70 0 -70 0 0 235 0 235 -40 0 -40 0 0 40 c0 40 0 40 -39 40 -37 0 -39 2 -45
38 -3 20 -6 52 -6 70 l0 32 125 0 125 0 0 40 0 40 45 0 45 0 0 45 0 45 40 0
40 0 0 55 0 55 45 0 45 0 -6 70 -7 70 63 0 63 0 -7 -70z"/>
</g>
</svg>
